<?xml version="1.0" encoding="UTF-8"?>
<svg id="Logo_Concepts" xmlns="http://www.w3.org/2000/svg" version="1.1" viewBox="0 0 996.3 996.3">
  <!-- Generator: Adobe Illustrator 29.7.1, SVG Export Plug-In . SVG Version: 2.1.1 Build 8)  -->
  <path d="M912.2,224.7c-12.1-10.8-28.2-15.9-44.4-14.1-55.5,6.3-112.1,2.5-167.5-11.1-.6,9.3-5.3,17.9-12.9,23.4-1.6,1.1-3.3,2.1-5.1,2.9,8,2.2,16.1,4.1,24.2,5.9,36.1,7.9,72.6,11.9,109,11.9s37.3-1,55.8-3.2c7.8-.9,15.3,1.5,21.1,6.7,5.7,5.1,8.9,12.2,8.9,19.8v445.7c0,13.3-10,24.7-23.2,26.5-7.7,1.1-15.4,1.9-23.2,2.6,0-114.7,0-302.5,0-399.4,0-2.8,0-10.3,0-12.9-.2-7.5-1.5-15.2-4.8-22-7.5-14.9-22.7-25.5-38.9-28.2-5.5-.8-10.8-1.5-16.2-2.4-27.2-4.5-53.6-11.3-80.2-19.9,23.5,15.6,48.5,28.8,74.7,39.3,13.1,5.4,25.7,6.9,31.6,21.5,1.7,4,3.5,8.1,3.7,12.6v.7c0,.2,0,.6,0,1v10.4c0,97.7.1,286.2,0,401,0,10.6,0,20.7,0,29.9v2.4c-.2,15.2-14.5,27.4-29.5,25.5h-1.3c-.4-.2-.9-.3-1.3-.4-1.7-.3-5.2-1.4-6.7-1.9-.4-.1-.7-.2-1.1-.3-32.2-10.1-63.1-23.8-92.5-40.3h0c-20.8-11.7-40.7-24.8-59.8-38.9v-67.7c0-73.2,18.4-148.2,53.1-216.8,14.6-28.9,22.1-60.1,22.1-92.8s-3-40.9-8.9-60.2c-4.4-14.5-10.4-28.4-17.9-41.6-2.2-3.9-4.6-7.7-7-11.4l-17.3,5.2-12.9,3.9c4.1,5.6,7.9,11.4,11.3,17.4.7,1.2,1.3,2.3,1.9,3.5,13.6,25.3,20.9,53.7,20.9,83.2s-6.3,54.6-18.8,79.3c-36.9,72.8-56.3,152.4-56.3,230.3v2.1c-.8.4-1.5.9-2.3,1.3-.3.2-.6.3-.9.4h0c-.7.4-1.4.7-2,1.1-.1,0-.2.1-.3.2-1,.5-2,1.1-3.1,1.6-4.5,2.3-9.1,4.4-13.7,6.3-.9.4-1.8.7-2.7,1.1,0,0,0,0-.1,0-1,.4-2.1.8-3.1,1.2-.8.3-1.7.6-2.5.9-.4.2-.9.3-1.3.5h0c-.3.1-.6.2-1,.3-.1,0-.3,0-.4.1-.8.3-1.7.6-2.5.8-.3.1-.6.2-.9.3-.5.2-1.1.4-1.6.5-1.1.4-2.2.7-3.4,1-1.1.3-2.1.6-3.2.9-6,1.7-12,3.1-18.1,4.2-2,.4-4.1.7-6.2,1-1.3.2-2.6.4-3.9.6-1,.1-2,.3-3.1.4-1.2.1-2.3.3-3.4.4,0,0,0,0-.1,0-1,0-1.9.2-2.9.3-.3,0-.5,0-.8,0-.7,0-1.4.1-2.2.2h0v-162.8s0,0,0-.1c13.7-28.3,30-55.7,48.8-81.6,1.2-1.7,2.5-3.4,3.8-5.1.3-.5.7-.9,1-1.4-.3.3-.7.6-1,.9-1.3,1.1-2.5,2.3-3.8,3.5-17.3,16-33.7,33.3-48.9,51.6v-2.5c0-1,.1-2.1.2-3.1,2.5-35.4,21.3-64.2,48.7-80.4,1.2-.7,2.5-1.5,3.8-2.1,9.2-4.9,19.2-8.5,29.9-10.6,1.4-.3,2.8-.5,4.1-.7-1.5,4.5-2.9,9.1-4.1,13.7-.3,1.1-.6,2.3-.9,3.5-.2.8-.4,1.5-.6,2.3-.4,1.4-.7,2.8-1,4.2-.6,2.3-1.1,4.7-1.6,7.1-.4,1.9-.8,3.8-1.1,5.7-.1.6-.2,1.2-.3,1.8-.2.9-.3,1.8-.5,2.8-.2,1.2-.4,2.3-.6,3.5,0,.4-.2.9-.2,1.4,0,.5-.1.9-.2,1.4-.2,1.2-.4,2.5-.5,3.7-1.1,8.3-1.7,16.6-2.9,22.8,0,0-1,4.2-3.3,10.2-2.5,6.4-9.3,15.1-19.7,24.6-8.6,7.9-19.7,16.4-33,24.6,13.9,1.2,25.2-.6,33-2.6,1.4-.3,2.6-.7,3.8-1,9.6-2.9,25.3-7.7,36.6-22.2,3.9-5,5.9-9.4,7.6-13.2,5.6-12.5,5.9-26.1,7.6-39.1,3-22.4,9.2-44.4,17.9-65.3,4.1-9.2-2.8-20.3-12.9-20.7-7.2-.4-13.9,0-20.7.6-2.1.2-4.2.5-6.2.8-10.5,1.6-20.5,4.2-29.9,7.9-1.3.5-2.5,1-3.8,1.5-19.4,8.3-35.9,20.8-48.8,36.4,0-2.7,0-5.4-.1-8.1v-163.6c0-2.9-.8-5.6-2.2-7.8-1.2-2-2.9-3.6-4.8-4.9-2.3-1.4-5-2.3-7.9-2.3-8.3,0-15,6.7-15,15v83.5c-12.9-15.7-29.4-28.3-48.9-36.6-1.2-.5-2.5-1-3.7-1.5-9.4-3.7-19.4-6.4-29.9-7.9-2.1-.3-4.2-.6-6.3-.8-6.8-.7-13.5-1-20.7-.6-1.6,0-3.3.4-4.9,1.1-7.6,3.2-11.2,11.9-8,19.6,8.7,20.9,14.8,42.9,17.9,65.3,1.8,12.9,2.1,26.6,7.6,39.1,1.7,3.8,3.7,8.2,7.6,13.2,11.3,14.6,27.1,19.4,36.7,22.3,1.1.3,2.4.7,3.7,1,7.7,2,19,3.8,32.9,2.6-14.4-6.8-25-13.8-32.9-20.5-12.8-11-18.3-21.6-20.6-30.5-.3-1.3-2.7-11.2-5.5-31.2-1.7-12.5-4.2-24.8-7.6-36.9-1.3-4.7-2.7-9.4-4.2-14,1.4.2,2.8.4,4.2.7,10.8,2,20.8,5.6,29.9,10.5,1.3.7,2.5,1.4,3.7,2.1,29.5,17.5,48.2,49.3,48.8,86.1-15.2-18.4-31.6-35.6-48.8-51.6-1.2-1.2-2.5-2.3-3.7-3.4-.4-.3-.7-.7-1.1-1,.4.5.7,1,1.1,1.5,1.3,1.7,2.5,3.4,3.7,5.1,18.8,25.9,35.1,53.2,48.7,81.5h0c0,.1.1.2.1.3v51.9c-.3,5.1-.3,10.4,0,15.7v183.4c0,0-.1,0-.2,0-.6,0-1.3,0-1.9-.1-.3,0-.6,0-1,0-.9,0-1.8-.1-2.7-.3-.1,0-.2,0-.3,0-1.1-.1-2.2-.2-3.3-.4-1-.1-2-.2-2.9-.4-1.3-.2-2.7-.4-4-.6-1.2-.2-2.3-.4-3.4-.6-.8-.1-1.7-.3-2.5-.4-1.6-.3-3.1-.6-4.7-.9-2.1-.4-4.2-.9-6.4-1.5-.9-.2-1.8-.4-2.7-.7-1.6-.4-3.3-.9-4.9-1.3-.9-.3-1.9-.5-2.8-.8-1.7-.5-3.4-1-5-1.6-.2,0-.3-.1-.5-.1-1-.3-2-.7-2.9-1-.1,0-.2,0-.3-.1-.3,0-.5-.2-.8-.3-.7-.2-1.3-.5-2-.7-.9-.3-1.8-.7-2.7-1-3.3-1.2-6.5-2.6-9.7-4-1-.4-1.9-.8-2.9-1.3-2-.9-4-1.9-6-2.9-1.3-.6-2.6-1.3-3.9-2h0c-.6-.3-1.3-.7-1.9-1-.3-.1-.6-.3-.9-.5-.8-.4-1.5-.8-2.3-1.3v-.7c0-78.5-19.5-158.8-56.5-232.1-11.9-23.7-18.2-49.2-18.7-75.9-.5-30.6,6.8-60.2,21.1-86.5,7.7-14.1,17.4-27.3,29-39.2,7.9-8.1,16.5-15.4,25.6-21.7,10.2-7.2,21.1-13.2,32.5-17.9,20.7-8.7,43.1-13.4,66.2-13.5,8.4,0,16.7.5,24.8,1.6h0c6.5.9,12.9,2.1,19.2,3.6,5.3,1.3,10.5,2.9,15.6,4.7l-20.2,6-9.5,2.8c-12.6,3.8-12.6,21.7,0,25.4l9.5,2.8,28.6,8.6c.4.1.9.3,1.3.5,3.1,1.3,5.6,3.7,7,6.8.3.5.5,1.1.6,1.7l11.4,38.2c1.9,6.3,7.3,9.5,12.7,9.5s10.8-3.2,12.7-9.5l9-30.2h0s2-6.8,2-6.8l.3-1.1c.9-3.1,3-5.8,5.7-7.5,1-.6,2.1-1.1,3.2-1.5l16.6-5h.1s11.1-3.3,11.1-3.3l10.4-3.1c1.5-.5,2.9-1.1,4.1-1.9,4.4-3.1,6.1-8.6,5.2-13.5-.9-4.4-4-8.4-9.2-10l-38.2-11.4c-4.3-1.3-7.6-4.6-8.9-8.9l-.5-1.7-10.9-36.4c-1.9-6.3-7.3-9.5-12.7-9.5s-10.8,3.2-12.7,9.5l-5.6,18.8-.3.9h0l-1.8,6c-2.8-1.2-5.5-2.3-8.4-3.3-2.8-1-5.6-2-8.5-2.9-20-6.4-41-9.6-62.5-9.6h-1.6c-41,.3-80,12.6-113.3,35.2-81,35.3-167.2,48.9-251,39.4-16.1-1.8-32.3,3.3-44.4,14.1-12,10.7-18.9,26.1-18.9,42.1v445.7c0,28.2,21.1,52.3,49,56.1,9.1,1.3,18.2,2.2,27.4,3,0,1.7,0,3.3,0,5,.2,5.7,1.2,11.2,3.1,16.6,9.8,28.7,41.5,44.5,70.4,35.3,54.7-16.5,106.2-42.8,152.9-75.6,5.5,21,16.3,40.3,31.7,56.3,23.2,24.1,54.5,37.9,87.8,38.9,2.2,0,4.5,0,6.8,0s4.5,0,6.7,0c33.4-1,64.6-14.8,87.8-38.9,15.4-16,26.3-35.3,31.8-56.4,45.6,32,95.6,57.9,148.8,74.4l4.1,1.3c.4.1.6.2,1.1.3.9.3,3.1.7,4.1,1,26.7,6.2,55.3-9.6,64.8-35.3.6-2.2,1.5-4.5,2-6.8.4-2.7,1.2-5.6,1.3-8.4l.2-2.8s0-1.4,0-1.4v-3.6c9.1-.7,18.2-1.7,27.3-2.9,27.9-3.8,49-27.9,49-56.1v-445.7c0-16.1-6.9-31.4-18.9-42.1ZM371.4,719.1c-.4.3-.9.7-1.3,1-1.7,1.3-3.5,2.5-5.2,3.8-3.1,2.3-6.3,4.5-9.5,6.7-.9.7-1.9,1.3-2.9,2-.5.3-.9.6-1.4.9-1.1.7-2.1,1.5-3.2,2.2-.3.2-.6.4-1,.6-1.6,1.1-3.2,2.1-4.8,3.1-3.5,2.3-6.9,4.5-10.4,6.6-1.5,1-3.1,1.9-4.6,2.8-2,1.2-4,2.4-6,3.6-1.8,1-3.5,2.1-5.3,3.1-1.5.8-2.9,1.7-4.4,2.5,0,0,0,0,0,0-29.4,16.5-60.3,30.2-92.4,40.3-1.6.5-3.3,1-4.9,1.5-.9.3-2,.4-2.9.7-.8.3-1.8.3-2.6.4-12.3,1.7-25.3-6.9-28.5-18.9-.1-.4-.3-.8-.4-1.3l-.2-1.3c-.4-1.6-.4-3.4-.5-5v-31.3c0-114.2,0-303.8,0-401,0-2.4,0-9.8,0-12,0-3.6,1.5-6.9,2.6-10.2,2.6-8.1,8.6-14.9,16.7-18.1,21.3-7.5,42.2-16.8,62-27.7,9.8-5.5,19.5-11.2,28.8-17.4-21.2,7-42.6,12.8-64.1,17.1-10.8,2.2-21.3,3.9-32.3,5.4-14.4,2.3-27.7,10.9-36,23.1-6.4,9.1-7.9,20.6-7.8,31.4v41.5c0,80.2-.1,263,0,366.2-7.8-.7-15.5-1.5-23.2-2.6-13.2-1.8-23.2-13.2-23.2-26.5v-445.7c0-7.7,3.2-14.7,8.9-19.8,5-4.5,11.3-6.8,17.9-6.8s2.1,0,3.2.2c67.2,7.6,135.7,1.3,202.2-18.3-13.1,18.2-23.1,38.3-29.6,59.4-6.3,20.4-9.4,41.9-9,63.9.5,31.2,7.9,61.1,21.9,88.8,34.9,69.2,53.3,144.8,53.3,218.6v66.2ZM602.6,720.1c0,2.4,0,4.8-.3,7.1-.1,2-.3,4-.6,6-6.2,47.2-45.2,83.6-93.9,85-3.9.1-7.9.1-11.8,0-48.7-1.4-87.7-37.7-93.9-85h0c-.3-2-.5-4-.6-6-.2-2.3-.3-4.7-.3-7.1v-33c.2,0,.4.2.6.3.4.2.8.4,1.2.6h0s0,0,0,0c3.5,1.6,7,3.1,10.5,4.5.9.4,1.7.7,2.6,1,3.5,1.3,6.9,2.6,10.5,3.8.5.2,1.1.4,1.6.5.5.2.9.3,1.4.5h0c.1,0,.2,0,.3.1.4.1.9.3,1.3.4.2,0,.4.1.5.2.2,0,.5.1.7.2.4.1.9.3,1.3.4,1,.3,2.1.6,3.1.9.6.2,1.1.3,1.7.5,1,.3,2,.5,3,.8,1,.3,1.9.5,2.9.7.6.2,1.3.3,1.9.5,4.5,1.1,9.1,2.1,13.7,2.9.9.2,1.8.3,2.7.5.9.2,1.8.3,2.7.4,1.3.2,2.6.4,3.8.6,1.5.2,3,.4,4.4.6.9.1,1.9.2,2.9.3.6,0,1.3.1,1.9.2,1,.1,2,.2,2.9.3,1.3.1,2.7.2,4,.3,2.2.1,4.3.3,6.5.4,1,0,2,0,3,.1.2,0,.5,0,.7,0,.9,0,1.9,0,2.8,0,1.1,0,2.2,0,3.3,0s2.2,0,3.3,0c.9,0,1.9,0,2.8,0,.2,0,.5,0,.7,0,1,0,2,0,3-.1,2.2,0,4.4-.2,6.5-.4,1.3,0,2.7-.2,4-.3.9,0,1.9-.2,2.8-.3.7,0,1.4-.1,2.1-.2.9,0,1.8-.2,2.7-.3,1.5-.2,2.9-.4,4.4-.6,1.3-.2,2.6-.4,3.9-.6.9-.1,1.8-.3,2.6-.4.9-.1,1.7-.3,2.6-.4,2.3-.4,4.6-.9,7-1.3,1.3-.3,2.6-.6,3.9-.9,1-.2,2.1-.5,3.1-.7.6-.1,1.3-.3,1.9-.5,1-.2,1.9-.5,2.9-.7,1.3-.3,2.5-.7,3.8-1,0,0,.2,0,.3,0,1.3-.4,2.5-.7,3.8-1.1.9-.3,1.7-.5,2.6-.8.6-.2,1.1-.3,1.6-.5,0,0,0,0,0,0h0c.5-.1.9-.3,1.4-.5h0c.1,0,.3,0,.4-.1.9-.3,1.7-.6,2.6-.9,2-.7,4.1-1.4,6.1-2.2.8-.3,1.6-.6,2.4-.9.4-.1.7-.3,1.1-.4.9-.3,1.7-.7,2.6-1,1-.4,2-.8,3-1.2,1-.4,2-.8,3-1.3,1.3-.6,2.7-1.2,4-1.8.4-.2.9-.4,1.3-.6h0c.2,0,.4-.2.6-.3v33Z" fill="#6e33ff"/>
  <path d="M371.4,652.8v66.2c-.4.3-.9.7-1.3,1-1.7,1.3-3.5,2.5-5.2,3.8-3.1,2.3-6.3,4.5-9.5,6.7-.9.7-1.9,1.3-2.9,2-.5.3-.9.6-1.4.9-1.1.7-2.1,1.5-3.2,2.2-.3.2-.6.4-1,.6-1.6,1.1-3.2,2.1-4.8,3.1-3.5,2.3-6.9,4.5-10.4,6.6-1.5,1-3.1,1.9-4.6,2.8-2,1.2-4,2.4-6,3.6-1.8,1-3.5,2.1-5.3,3.1-1.5.8-2.9,1.7-4.4,2.5,0,0,0,0,0,0-29.4,16.5-60.3,30.2-92.4,40.3-6.5-4.8-11-12.5-11-21.7v-432.7c0-10.8,6.5-20.6,16.5-24.8,26.8-11.1,53.7-23.7,80.7-37.7-6.3,20.4-9.4,41.9-9,63.9.5,31.2,7.9,61.1,21.9,88.8,34.9,69.2,53.3,144.8,53.3,218.6Z" fill="#13eac1"/>
  <path d="M795.8,344v432.7c0,9.1-4.4,16.8-10.9,21.6-32.2-10.1-63.1-23.8-92.5-40.3h0c-20.8-11.7-40.7-24.8-59.8-38.9v-67.7c0-73.2,18.4-148.2,53.1-216.8,14.6-28.9,22.1-60.1,22.1-92.8s-3-40.9-8.9-60.2c26.9,14,53.8,26.6,80.5,37.6,10,4.1,16.5,13.9,16.5,24.8Z" fill="#13eac1"/>
  <path d="M487,428.3v8.7c-5.3-2.4-10.7-4.9-16-7.3-14.4-6.8-25-13.8-32.9-20.5-12.8-11-18.3-21.6-20.6-30.5-.3-1.3-2.7-11.2-5.5-31.2-1.7-12.5-4.2-24.8-7.6-36.9-1.3-4.7-2.7-9.4-4.2-14,1.4.2,2.8.4,4.2.7,10.8,2,20.8,5.6,29.9,10.5,1.3.7,2.5,1.4,3.7,2.1,29.5,17.5,48.2,49.3,48.8,86.1-15.2-18.4-31.6-35.6-48.8-51.6-1.2-1.2-2.5-2.3-3.7-3.4-.4-.3-.7-.7-1.1-1,.4.5.7,1,1.1,1.5,1.3,1.7,2.5,3.4,3.7,5.1,18.8,25.9,35.1,53.2,48.7,81.5h0c0,.1.1.2.1.3Z" fill="#13eac1"/>
  <path d="M603.6,385c-1.5,4.5-2.9,9.1-4.1,13.7-.3,1.1-.6,2.3-.9,3.5-.2.8-.4,1.5-.6,2.3-.4,1.4-.7,2.8-1,4.2-.6,2.3-1.1,4.7-1.6,7.1-.4,1.9-.8,3.8-1.1,5.7-.1.6-.2,1.2-.3,1.8-.2.9-.3,1.8-.5,2.8-.2,1.2-.4,2.3-.6,3.5,0,.4-.2.9-.2,1.4,0,.5-.1.9-.2,1.4-.2,1.2-.4,2.5-.5,3.7-1.1,8.3-1.7,16.6-2.9,22.8,0,0-1,4.2-3.3,10.2-2.5,6.4-9.3,15.1-19.7,24.6-8.6,7.9-19.7,16.4-33,24.6-5.3,3.9-10.6,7.8-15.9,11.6v-13.3s0,0,0-.1c13.7-28.3,30-55.7,48.8-81.6,1.2-1.7,2.5-3.4,3.8-5.1.3-.5.7-.9,1-1.4-.3.3-.7.6-1,.9-1.3,1.1-2.5,2.3-3.8,3.5-17.3,16-33.7,33.3-48.9,51.6v-2.5c0-1,.1-2.1.2-3.1,2.5-35.4,21.3-64.2,48.7-80.4,1.2-.7,2.5-1.5,3.8-2.1,9.2-4.9,19.2-8.5,29.9-10.6,1.4-.3,2.8-.5,4.1-.7Z" fill="#13eac1"/>
</svg>