<?xml version="1.0" encoding="UTF-8"?>
<svg id="Logo_Concepts" xmlns="http://www.w3.org/2000/svg" version="1.1" viewBox="0 0 1000 1000">
  <!-- Generator: Adobe Illustrator 29.7.1, SVG Export Plug-In . SVG Version: 2.1.1 Build 8)  -->
  <path d="M301.7,720.3c-4-7.7-9.4-13.5-16.4-17.5-6.9-4-14.8-6-23.7-6s-14.9,1.4-20.9,4.2c-6,2.8-11.1,6.6-15.2,11.3v-51c0-1.7-.5-3.1-1.6-4.1-1.1-1.1-2.4-1.6-4.1-1.6h-29.3c-1.7,0-3.1.5-4.1,1.6-1.1,1.1-1.6,2.4-1.6,4.1v151c0,1.7.5,3,1.6,4.1,1.1,1.1,2.4,1.6,4.1,1.6h29.3c1.7,0,3.1-.5,4.1-1.6,1.1-1.1,1.6-2.4,1.6-4.1v-62.5c0-7.2,1.9-12.7,5.7-16.6,3.8-3.9,8.8-5.8,15.1-5.8s11.8,1.9,15.2,5.8c3.4,3.9,5.1,9.4,5.1,16.6v62.5c0,1.7.6,3,1.7,4.1,1.1,1.1,2.5,1.6,4,1.6h29.5c1.7,0,3-.5,4.1-1.6,1.1-1.1,1.6-2.4,1.6-4.1v-63.8c0-11.1-2-20.6-5.9-28.3Z" fill="#6e33ff"/>
  <path d="M448.3,700.6c-1-1-2.2-1.5-3.5-1.5h-25.6c-2,0-3.5.5-4.5,1.5s-1.8,2.1-2.4,3.3l-26.8,66.6-26.3-66.6c-.3-1.2-1-2.3-1.9-3.3s-2.5-1.5-4.5-1.5h-26.1c-1.4,0-2.5.5-3.4,1.5-.9,1-1.5,2.2-1.8,3.5,0,.8.2,1.7.7,2.7l43.9,103.9-17.8,43c-.3.6-.5,1.2-.6,1.7,0,.5-.1,1-.1,1.3,0,1.4.5,2.5,1.4,3.4.9.9,2.1,1.4,3.4,1.4h25.2c2,0,3.5-.5,4.6-1.5,1.1-1,1.8-2.1,2.3-3.3l64.7-149.9c.5-1.2.7-2.2.7-3,0-1.2-.5-2.3-1.5-3.3Z" fill="#6e33ff"/>
  <path d="M552.9,788.4c-1.1-1.1-2.4-1.6-4.1-1.6h-17.6c-4.7,0-8.1-1.5-10.1-4.6-2-3.1-3-7.2-3-12.4v-40.7h28.6c1.7,0,3-.5,4.1-1.6,1.1-1.1,1.6-2.4,1.6-4.1v-18.5c0-1.7-.5-3.1-1.6-4.1-1.1-1.1-2.4-1.6-4.1-1.6h-28.6v-37.7c0-1.7-.5-3.1-1.6-4.1-1.1-1.1-2.4-1.6-4.1-1.6h-26.5c-1.5,0-2.9.5-4,1.6-1.1,1.1-1.7,2.4-1.7,4.1v37.7h-17.8c-1.7,0-3.1.5-4.2,1.6-1.1,1.1-1.7,2.4-1.7,4.1v18.5c0,1.7.6,3.1,1.7,4.1,1.1,1.1,2.6,1.6,4.2,1.6h17.8v43.9c0,10.5,1.9,19.1,5.7,25.7,3.8,6.6,9.3,11.5,16.4,14.6,7.1,3.1,15.5,4.7,25.3,4.7h21.3c1.7,0,3-.5,4.1-1.6,1.1-1.1,1.6-2.4,1.6-4.1v-19.9c0-1.7-.5-3.1-1.6-4.1Z" fill="#6e33ff"/>
  <path d="M690.4,748.3c-.6-10.8-3.3-20.1-8.2-27.7-4.9-7.6-11.7-13.5-20.5-17.6-8.8-4.1-19.4-6.2-31.9-6.2s-22.9,2.1-31.7,6.2c-8.8,4.1-15.6,10-20.5,17.6-4.9,7.6-7.6,16.8-8.2,27.7-.2,2.9-.2,6.3-.2,10.2s0,7.4.2,10.4c.6,10.7,3.2,19.9,7.9,27.6,4.6,7.7,11.4,13.6,20.1,17.7,8.8,4.1,19.6,6.2,32.4,6.2s23.8-2.1,32.6-6.2c8.8-4.1,15.5-10,20.1-17.7,4.6-7.7,7.3-16.9,7.9-27.6.2-3.1.2-6.5.2-10.4s0-7.3-.2-10.2ZM650.2,767.8c-.5,8.2-2.2,14.4-5.4,18.5s-8.1,6.2-15,6.2-11.7-2.1-14.9-6.2c-3.2-4.1-5-10.3-5.3-18.5-.2-2.3-.2-5.3-.2-9.1s0-6.9.2-9.2c.3-8.1,2.1-14.2,5.3-18.4,3.2-4.2,8.2-6.3,14.9-6.3s11.9,2.1,15,6.3c3.1,4.2,4.9,10.3,5.4,18.4.2,2.3.2,5.3.2,9.2s0,6.9-.2,9.1Z" fill="#6e33ff"/>
  <path d="M834.6,750.2c-.3-8.5-1.6-16.1-4-22.7-2.4-6.6-5.6-12.1-9.7-16.7-4.1-4.6-9.1-8-14.9-10.4-5.8-2.4-12.5-3.5-20.1-3.5s-15.7,1.6-21.5,4.7c-5.8,3.1-10.5,7.1-14,11.8v-8.5c0-1.7-.6-3.1-1.7-4.1-1.1-1.1-2.5-1.6-4-1.6h-25.9c-1.7,0-3.1.5-4.1,1.6-1.1,1.1-1.6,2.4-1.6,4.1v151c0,1.7.5,3,1.6,4.1,1.1,1.1,2.4,1.6,4.1,1.6h27.9c1.7,0,3.1-.5,4.1-1.6,1.1-1.1,1.6-2.4,1.6-4.1v-50.8c3.7,4.9,8.3,8.7,13.8,11.3,5.6,2.7,12.1,4,19.6,4s14.4-1.3,20.2-3.8c5.9-2.5,10.9-6.1,15-10.6,4.1-4.6,7.3-10.1,9.6-16.7,2.3-6.6,3.6-14,3.9-22.2.2-3,.2-5.9.2-8.5s0-5.4-.2-8.5ZM794.3,765.7c-.3,4.4-1.1,8.5-2.4,12.1-1.3,3.7-3.4,6.6-6.3,8.7-2.9,2.1-6.9,3.2-12.1,3.2s-8.6-1-11.7-3.1c-3-2.1-5.3-4.7-6.9-8-1.5-3.3-2.4-6.8-2.5-10.6-.1-3.1-.2-6-.2-8.7s0-5.6.2-8.5c.2-4.1.9-7.9,2.3-11.4,1.4-3.5,3.6-6.4,6.6-8.6,3-2.2,7.1-3.3,12.1-3.3s9.2,1.1,12.1,3.2c2.9,2.1,5,5,6.3,8.7,1.3,3.7,2.1,7.7,2.4,12.1.3,4.7.3,9.5,0,14.2Z" fill="#6e33ff"/>
  <path d="M779.4,220.4c-7.9-7.1-18.5-10.4-29.1-9.2-36.5,4.2-73.7,1.6-110.1-7.3-.4,6.1-3.5,11.8-8.5,15.3-1,.7-2.2,1.4-3.4,1.9,5.3,1.4,10.6,2.7,15.9,3.9,23.7,5.2,47.7,7.8,71.6,7.8s24.5-.7,36.7-2.1c5.1-.6,10,1,13.8,4.4,3.8,3.3,5.8,8,5.8,13v292.9c0,8.7-6.5,16.2-15.2,17.4-5.1.7-10.1,1.3-15.3,1.7,0-75.3,0-198.8,0-262.4,0-1.9,0-6.7,0-8.5-.1-4.9-1-10-3.1-14.4-4.9-9.8-14.9-16.7-25.6-18.5-3.6-.5-7.1-1-10.6-1.6-17.8-3-35.2-7.4-52.7-13.1,15.4,10.3,31.9,19,49.1,25.8,8.6,3.6,16.9,4.5,20.8,14.1,1.1,2.6,2.3,5.4,2.5,8.3v.4c0,.1,0,.4,0,.6v6.8c0,64.2,0,188.1,0,263.5,0,7,0,13.6,0,19.6v1.6c-.1,10-9.5,18-19.4,16.7h-.9c-.3-.1-.6-.2-.9-.3-1.1-.2-3.4-.9-4.4-1.2-.2,0-.5-.1-.7-.2-21.2-6.6-41.5-15.6-60.8-26.5h0c-13.6-7.7-26.8-16.3-39.3-25.6v-44.5c0-48.1,12.1-97.4,34.9-142.5,9.6-19,14.5-39.5,14.5-61s-2-26.9-5.8-39.5c-2.9-9.5-6.8-18.7-11.8-27.3-1.5-2.5-3-5-4.6-7.5l-11.4,3.4-8.5,2.5c2.7,3.7,5.2,7.5,7.4,11.4.4.8.9,1.5,1.3,2.3,9,16.6,13.7,35.3,13.7,54.7s-4.2,35.9-12.4,52.1c-24.2,47.8-37,100.2-37,151.3v1.4c-.5.3-1,.6-1.5.8-.2.1-.4.2-.6.3h0c-.4.2-.9.5-1.3.7,0,0-.1,0-.2.1-.7.4-1.3.7-2,1-3,1.5-6,2.9-9,4.1-.6.2-1.2.5-1.8.7,0,0,0,0,0,0-.7.3-1.4.5-2,.8-.5.2-1.1.4-1.6.6-.3.1-.6.2-.9.3h0c-.2,0-.4.1-.6.2,0,0-.2,0-.3,0-.5.2-1.1.4-1.6.6-.2,0-.4.1-.6.2-.4.1-.7.2-1.1.4-.7.2-1.5.5-2.2.7-.7.2-1.4.4-2.1.6-3.9,1.1-7.9,2-11.9,2.8-1.3.2-2.7.5-4.1.7-.8.1-1.7.3-2.5.4-.7,0-1.3.2-2,.3-.8,0-1.5.2-2.2.3,0,0,0,0,0,0-.6,0-1.3.1-1.9.2-.2,0-.3,0-.5,0-.5,0-.9,0-1.4.1h0v-107s0,0,0,0c9-18.6,19.7-36.6,32.1-53.6.8-1.1,1.6-2.2,2.5-3.3.2-.3.4-.6.7-.9-.2.2-.4.4-.7.6-.8.7-1.7,1.5-2.5,2.3-11.4,10.5-22.1,21.9-32.1,33.9v-1.6c0-.7,0-1.4.1-2.1,1.6-23.3,14-42.2,32-52.9.8-.5,1.6-1,2.5-1.4,6-3.3,12.6-5.6,19.6-6.9.9-.2,1.8-.3,2.7-.5-1,3-1.9,6-2.7,9-.2.7-.4,1.5-.6,2.3-.1.5-.3,1-.4,1.5-.2.9-.5,1.8-.7,2.8-.4,1.5-.7,3.1-1.1,4.7-.3,1.2-.5,2.5-.7,3.7,0,.4-.1.8-.2,1.2-.1.6-.2,1.2-.3,1.8-.1.8-.3,1.5-.4,2.3,0,.3-.1.6-.1.9,0,.3,0,.6-.1.9-.1.8-.2,1.6-.4,2.5-.7,5.4-1.1,10.9-1.9,15,0,0-.6,2.8-2.2,6.7-1.7,4.2-6.1,9.9-12.9,16.2-5.7,5.2-13,10.8-21.7,16.2,9.1.8,16.6-.4,21.7-1.7.9-.2,1.7-.5,2.5-.7,6.3-1.9,16.7-5,24.1-14.6,2.5-3.3,3.9-6.2,5-8.7,3.7-8.2,3.9-17.2,5-25.7,2-14.7,6.1-29.2,11.8-42.9,2.7-6.1-1.8-13.3-8.5-13.6-4.7-.3-9.1,0-13.6.4-1.4.1-2.7.3-4.1.5-6.9,1-13.5,2.8-19.6,5.2-.8.3-1.7.7-2.5,1-12.7,5.4-23.6,13.7-32,23.9,0-1.8,0-3.6,0-5.3v-107.5c0-1.9-.5-3.7-1.5-5.1-.8-1.3-1.9-2.4-3.2-3.2-1.5-.9-3.3-1.5-5.2-1.5-5.4,0-9.8,4.4-9.8,9.8v54.9c-8.4-10.3-19.3-18.6-32.1-24.1-.8-.3-1.6-.7-2.5-1-6.2-2.4-12.7-4.2-19.6-5.2-1.4-.2-2.8-.4-4.2-.5-4.5-.5-8.9-.7-13.6-.4-1.1,0-2.2.3-3.2.7-5,2.1-7.4,7.8-5.3,12.8,5.7,13.7,9.8,28.2,11.8,42.9,1.2,8.5,1.4,17.5,5,25.7,1.1,2.5,2.4,5.4,5,8.7,7.4,9.6,17.8,12.7,24.1,14.6.7.2,1.6.5,2.5.7,5.1,1.3,12.5,2.5,21.6,1.7-9.4-4.5-16.4-9-21.6-13.5-8.4-7.2-12-14.2-13.5-20-.2-.9-1.8-7.3-3.6-20.5-1.1-8.2-2.8-16.3-5-24.3-.8-3.1-1.8-6.1-2.8-9.2.9.1,1.9.3,2.8.5,7.1,1.3,13.7,3.7,19.6,6.9.8.5,1.7.9,2.5,1.4,19.4,11.5,31.7,32.4,32.1,56.5-10-12.1-20.7-23.4-32.1-33.9-.8-.8-1.6-1.5-2.5-2.3-.2-.2-.5-.5-.7-.7.2.3.5.6.7,1,.8,1.1,1.6,2.2,2.5,3.3,12.4,17,23.1,34.9,32,53.5h0c0,0,0,.1,0,.2v34.1c-.2,3.4-.2,6.8,0,10.3v120.5s0,0-.1,0c-.4,0-.8,0-1.3,0-.2,0-.4,0-.6,0-.6,0-1.2,0-1.8-.2,0,0-.1,0-.2,0-.7,0-1.5-.2-2.2-.2-.6,0-1.3-.2-1.9-.2-.9-.1-1.8-.2-2.6-.4-.8-.1-1.5-.2-2.3-.4-.5,0-1.1-.2-1.6-.3-1-.2-2-.4-3.1-.6-1.4-.3-2.8-.6-4.2-1-.6-.1-1.2-.3-1.8-.4-1.1-.3-2.2-.6-3.2-.9-.6-.2-1.2-.4-1.8-.5-1.1-.3-2.2-.7-3.3-1-.1,0-.2,0-.3,0-.6-.2-1.3-.4-1.9-.7,0,0-.1,0-.2,0-.2,0-.4-.1-.5-.2-.4-.1-.9-.3-1.3-.5-.6-.2-1.2-.4-1.8-.7-2.2-.8-4.3-1.7-6.4-2.6-.6-.3-1.3-.6-1.9-.8-1.3-.6-2.7-1.2-4-1.9-.9-.4-1.7-.9-2.5-1.3h0c-.4-.2-.8-.4-1.2-.7-.2,0-.4-.2-.6-.3-.5-.3-1-.6-1.5-.8v-.4c0-51.6-12.8-104.3-37.1-152.5-7.8-15.6-12-32.3-12.3-49.8-.4-20.1,4.5-39.6,13.9-56.8,5-9.3,11.4-18,19.1-25.8,5.2-5.3,10.8-10.1,16.8-14.3,6.7-4.7,13.9-8.7,21.4-11.8,13.6-5.7,28.3-8.8,43.5-8.9,5.5,0,11,.3,16.3,1h0c4.3.6,8.5,1.4,12.6,2.4,3.5.9,6.9,1.9,10.3,3.1l-13.3,4-6.3,1.9c-8.3,2.5-8.3,14.2,0,16.7l6.3,1.9,18.8,5.6c.3,0,.6.2.8.3,2.1.8,3.7,2.4,4.6,4.5.2.4.3.7.4,1.1l7.5,25.1c1.2,4.2,4.8,6.2,8.4,6.2s7.1-2.1,8.4-6.2l5.9-19.8h0s1.3-4.5,1.3-4.5l.2-.7c.6-2.1,2-3.8,3.8-4.9.6-.4,1.4-.7,2.1-1l10.9-3.3h0s7.3-2.2,7.3-2.2l6.8-2c1-.3,1.9-.7,2.7-1.3,2.9-2.1,4-5.6,3.4-8.9-.6-2.9-2.6-5.6-6.1-6.6l-25.1-7.5c-2.8-.8-5-3-5.9-5.9l-.3-1.1-7.1-23.9c-1.2-4.1-4.8-6.2-8.4-6.2s-7.1,2.1-8.4,6.2l-3.7,12.3-.2.6h0l-1.2,3.9c-1.8-.8-3.6-1.5-5.5-2.2-1.8-.7-3.7-1.3-5.6-1.9-13.1-4.2-26.9-6.3-41.1-6.3h-1.1c-26.9.2-52.6,8.3-74.4,23.1-53.2,23.2-109.9,32.1-164.9,25.9-10.6-1.2-21.2,2.2-29.1,9.2-7.9,7-12.4,17.1-12.4,27.7v292.9c0,18.5,13.8,34.3,32.2,36.9,6,.8,12,1.5,18,1.9,0,1.1,0,2.2,0,3.3.1,3.7.8,7.3,2,10.9,6.5,18.9,27.3,29.2,46.3,23.2,36-10.8,69.7-28.1,100.5-49.7,3.6,13.8,10.7,26.5,20.9,37,15.3,15.9,35.8,24.9,57.7,25.6,1.5,0,3,0,4.4,0s3,0,4.4,0c21.9-.6,42.4-9.7,57.7-25.6,10.1-10.5,17.3-23.2,20.9-37,30,21,62.8,38,97.8,48.9l2.7.8c.2,0,.4.1.7.2.6.2,2,.5,2.7.6,17.6,4.1,36.4-6.3,42.6-23.2.4-1.4,1-3,1.3-4.4.3-1.8.8-3.7.9-5.5v-1.8c.1,0,.1-.9.2-.9v-2.3c6-.5,12-1.1,17.9-1.9,18.4-2.5,32.2-18.4,32.2-36.9V248.1c0-10.6-4.5-20.7-12.4-27.7ZM424,545.2c-.3.2-.6.4-.9.7-1.1.8-2.3,1.7-3.4,2.5-2.1,1.5-4.1,2.9-6.2,4.4-.6.4-1.2.9-1.9,1.3-.3.2-.6.4-.9.6-.7.5-1.4,1-2.1,1.4-.2.1-.4.3-.6.4-1,.7-2.1,1.4-3.1,2.1-2.3,1.5-4.5,2.9-6.9,4.4-1,.6-2,1.2-3,1.9-1.3.8-2.6,1.6-3.9,2.3-1.2.7-2.3,1.4-3.5,2-1,.6-1.9,1.1-2.9,1.6,0,0,0,0,0,0-19.3,10.9-39.6,19.9-60.7,26.5-1.1.3-2.2.7-3.2,1-.6.2-1.3.3-1.9.5-.5.2-1.2.2-1.7.3-8.1,1.1-16.6-4.5-18.7-12.4,0-.3-.2-.5-.3-.8v-.9c-.4-1-.4-2.2-.5-3.3v-20.6c0-75,0-199.6,0-263.5,0-1.6,0-6.4,0-7.9,0-2.3,1-4.5,1.7-6.7,1.7-5.3,5.6-9.8,11-11.9,14-4.9,27.7-11,40.7-18.2,6.5-3.6,12.8-7.3,18.9-11.4-13.9,4.6-28,8.4-42.1,11.2-7.1,1.4-14,2.6-21.2,3.5-9.5,1.5-18.2,7.2-23.7,15.2-4.2,6-5.2,13.5-5.1,20.6v27.3c0,52.7,0,172.8,0,240.6-5.1-.4-10.2-1-15.3-1.7-8.7-1.2-15.2-8.7-15.2-17.4V248.1c0-5,2.1-9.7,5.8-13,3.3-2.9,7.4-4.5,11.7-4.5s1.4,0,2.1.1c44.1,5,89.2.9,132.8-12-8.6,12-15.2,25.1-19.5,39.1-4.1,13.4-6.1,27.6-5.9,42,.4,20.5,5.2,40.1,14.4,58.3,22.9,45.4,35,95.1,35,143.7v43.5ZM576,545.9c0,1.6,0,3.1-.2,4.7,0,1.3-.2,2.7-.4,4-4.1,31-29.7,54.9-61.7,55.8-2.6,0-5.2,0-7.7,0-32-.9-57.6-24.8-61.7-55.8h0c-.2-1.3-.3-2.6-.4-4-.1-1.5-.2-3.1-.2-4.7v-21.7c.1,0,.2.1.4.2.3.1.5.3.8.4h0s0,0,0,0c2.3,1,4.6,2,6.9,3,.6.2,1.1.5,1.7.7,2.3.9,4.6,1.7,6.9,2.5.4.1.7.2,1.1.4.3.1.6.2.9.3h0c0,0,.1,0,.2,0,.3,0,.6.2.9.3.1,0,.2,0,.4.1.2,0,.3,0,.5.1.3,0,.6.2.8.3.7.2,1.4.4,2,.6.4.1.7.2,1.1.3.6.2,1.3.4,2,.5.6.2,1.3.3,1.9.5.4.1.8.2,1.3.3,3,.7,6,1.4,9,1.9.6.1,1.2.2,1.8.3.6.1,1.2.2,1.8.3.8.1,1.7.3,2.5.4,1,.1,1.9.3,2.9.4.6,0,1.2.1,1.9.2.4,0,.8,0,1.3.1.6,0,1.3.1,1.9.2.9,0,1.8.1,2.7.2,1.4,0,2.8.2,4.3.2.7,0,1.3,0,2,0,.1,0,.3,0,.5,0,.6,0,1.2,0,1.9,0,.7,0,1.4,0,2.2,0s1.4,0,2.2,0c.6,0,1.2,0,1.9,0,.2,0,.3,0,.5,0,.7,0,1.3,0,2,0,1.4,0,2.9-.1,4.3-.2.9,0,1.8-.1,2.7-.2.6,0,1.2-.1,1.8-.2.5,0,.9,0,1.4-.1.6,0,1.2-.1,1.8-.2,1-.1,1.9-.2,2.9-.4.9-.1,1.7-.2,2.5-.4.6,0,1.2-.2,1.7-.3.6,0,1.1-.2,1.7-.3,1.5-.3,3.1-.6,4.6-.9.9-.2,1.7-.4,2.5-.6.7-.2,1.4-.3,2-.5.4,0,.8-.2,1.2-.3.6-.1,1.3-.3,1.9-.5.8-.2,1.7-.4,2.5-.7,0,0,.1,0,.2,0,.8-.2,1.7-.5,2.5-.7.6-.2,1.1-.3,1.7-.5.4-.1.7-.2,1.1-.3,0,0,0,0,0,0h0c.3,0,.6-.2.9-.3h0c0,0,.2,0,.3,0,.6-.2,1.1-.4,1.7-.6,1.3-.5,2.7-.9,4-1.4.5-.2,1-.4,1.6-.6.2,0,.5-.2.7-.3.6-.2,1.1-.5,1.7-.7.7-.3,1.3-.5,2-.8.7-.3,1.3-.6,2-.8.9-.4,1.8-.8,2.6-1.2.3-.1.6-.3.9-.4h0c.1,0,.2-.1.4-.2v21.7Z" fill="#6e33ff"/>
  <path d="M424,501.7v43.5c-.3.2-.6.4-.9.7-1.1.8-2.3,1.7-3.4,2.5-2.1,1.5-4.1,2.9-6.2,4.4-.6.4-1.2.9-1.9,1.3-.3.2-.6.4-.9.6-.7.5-1.4,1-2.1,1.4-.2.1-.4.3-.6.4-1,.7-2.1,1.4-3.1,2.1-2.3,1.5-4.5,2.9-6.9,4.4-1,.6-2,1.2-3,1.9-1.3.8-2.6,1.6-3.9,2.3-1.2.7-2.3,1.4-3.5,2-1,.6-1.9,1.1-2.9,1.6,0,0,0,0,0,0-19.3,10.9-39.6,19.9-60.7,26.5-4.3-3.1-7.2-8.2-7.2-14.2v-284.3c0-7.1,4.3-13.5,10.8-16.3,17.6-7.3,35.3-15.6,53-24.8-4.1,13.4-6.1,27.6-5.9,42,.4,20.5,5.2,40.1,14.4,58.3,22.9,45.4,35,95.1,35,143.7Z" fill="#13eac1"/>
  <path d="M702.9,298.8v284.3c0,6-2.9,11.1-7.2,14.2-21.2-6.6-41.5-15.6-60.8-26.5h0c-13.6-7.7-26.8-16.3-39.3-25.6v-44.5c0-48.1,12.1-97.4,34.9-142.5,9.6-19,14.5-39.5,14.5-61s-2-26.9-5.8-39.5c17.7,9.2,35.4,17.5,52.9,24.7,6.6,2.7,10.8,9.2,10.8,16.3Z" fill="#13eac1"/>
  <path d="M500,354.1v5.7c-3.5-1.6-7-3.2-10.5-4.8-9.4-4.5-16.4-9-21.6-13.5-8.4-7.2-12-14.2-13.5-20-.2-.9-1.8-7.3-3.6-20.5-1.1-8.2-2.8-16.3-5-24.3-.8-3.1-1.8-6.1-2.8-9.2.9.1,1.9.3,2.8.5,7.1,1.3,13.7,3.7,19.6,6.9.8.5,1.7.9,2.5,1.4,19.4,11.5,31.7,32.4,32.1,56.5-10-12.1-20.7-23.4-32.1-33.9-.8-.8-1.6-1.5-2.5-2.3-.2-.2-.5-.5-.7-.7.2.3.5.6.7,1,.8,1.1,1.6,2.2,2.5,3.3,12.4,17,23.1,34.9,32,53.5h0c0,0,0,.1,0,.2Z" fill="#13eac1"/>
  <path d="M576.6,325.7c-1,3-1.9,6-2.7,9-.2.7-.4,1.5-.6,2.3-.1.5-.3,1-.4,1.5-.2.9-.5,1.8-.7,2.8-.4,1.5-.7,3.1-1.1,4.7-.3,1.2-.5,2.5-.7,3.7,0,.4-.1.8-.2,1.2-.1.6-.2,1.2-.3,1.8-.1.8-.3,1.5-.4,2.3,0,.3-.1.6-.1.9,0,.3,0,.6-.1.9-.1.8-.2,1.6-.4,2.5-.7,5.4-1.1,10.9-1.9,15,0,0-.6,2.8-2.2,6.7-1.7,4.2-6.1,9.9-12.9,16.2-5.7,5.2-13,10.8-21.7,16.2-3.5,2.6-7,5.1-10.5,7.7v-8.7s0,0,0,0c9-18.6,19.7-36.6,32.1-53.6.8-1.1,1.6-2.2,2.5-3.3.2-.3.4-.6.7-.9-.2.2-.4.4-.7.6-.8.7-1.7,1.5-2.5,2.3-11.4,10.5-22.1,21.9-32.1,33.9v-1.6c0-.7,0-1.4.1-2.1,1.6-23.3,14-42.2,32-52.9.8-.5,1.6-1,2.5-1.4,6-3.3,12.6-5.6,19.6-6.9.9-.2,1.8-.3,2.7-.5Z" fill="#13eac1"/>
</svg>